<svg xmlns="http://www.w3.org/2000/svg" width="1920" height="1080"><path d="M445,-173L600,-179L703,-186Z" fill="#d9754a" stroke="#d9754a" stroke-width="1.51"/><path d="M116,-177L445,-173L703,-186Z" fill="#d6603e" stroke="#d6603e" stroke-width="1.51"/><path d="M342,1252L246,1263L735,1250Z" fill="#958e4c" stroke="#958e4c" stroke-width="1.51"/><path d="M735,1250L246,1263L1054,1249Z" fill="#91a55f" stroke="#91a55f" stroke-width="1.51"/><path d="M865,-166L1048,-148L1469,-166Z" fill="#d6915d" stroke="#d6915d" stroke-width="1.51"/><path d="M703,-186L865,-166L1469,-166Z" fill="#dd9369" stroke="#dd9369" stroke-width="1.51"/><path d="M703,-186L1469,-166L1746,-184Z" fill="#c3894e" stroke="#c3894e" stroke-width="1.51"/><path d="M1488,1198L1210,1224L1806,1247Z" fill="#5aa655" stroke="#5aa655" stroke-width="1.51"/><path d="M1210,1224L1054,1249L1806,1247Z" fill="#6bab59" stroke="#6bab59" stroke-width="1.51"/><path d="M2088,732L1987,848L2106,871Z" fill="#67aa57" stroke="#67aa57" stroke-width="1.51"/><path d="M2085,944L2092,1099L2106,871Z" fill="#429850" stroke="#429850" stroke-width="1.51"/><path d="M2092,466L1985,452L2107,595Z" fill="#90b877" stroke="#90b877" stroke-width="1.51"/><path d="M2088,732L2106,871L2107,595Z" fill="#74ac5e" stroke="#74ac5e" stroke-width="1.51"/><path d="M1939,1201L1806,1247L2114,1237Z" fill="#108546" stroke="#108546" stroke-width="1.51"/><path d="M2092,1099L1939,1201L2114,1237Z" fill="#0f8345" stroke="#0f8345" stroke-width="1.51"/><path d="M2106,871L2092,1099L2114,1237Z" fill="#298d4a" stroke="#298d4a" stroke-width="1.51"/><path d="M1940,219L2079,379L2117,254Z" fill="#979f57" stroke="#979f57" stroke-width="1.51"/><path d="M1953,90L1940,219L2117,254Z" fill="#9c934e" stroke="#9c934e" stroke-width="1.51"/><path d="M2079,379L2092,466L2117,254Z" fill="#91a55f" stroke="#91a55f" stroke-width="1.51"/><path d="M2092,466L2107,595L2117,254Z" fill="#8fad69" stroke="#8fad69" stroke-width="1.51"/><path d="M2106,871L2114,1237L2117,254Z" fill="#69a758" stroke="#69a758" stroke-width="1.51"/><path d="M2107,595L2106,871L2117,254Z" fill="#89b474" stroke="#89b474" stroke-width="1.51"/><path d="M1961,-23L1953,90L2117,74Z" fill="#987a3f" stroke="#987a3f" stroke-width="1.51"/><path d="M1953,90L2117,254L2117,74Z" fill="#988546" stroke="#988546" stroke-width="1.51"/><path d="M1961,-23L2117,74L2123,10Z" fill="#93713a" stroke="#93713a" stroke-width="1.51"/><path d="M2068,-122L1961,-23L2123,10Z" fill="#8f6935" stroke="#8f6935" stroke-width="1.51"/><path d="M2117,74L2117,254L2123,10Z" fill="#947a40" stroke="#947a40" stroke-width="1.51"/><path d="M1923,962L1946,1106L2085,944Z" fill="#3fa154" stroke="#3fa154" stroke-width="1.51"/><path d="M2085,944L1946,1106L2092,1099Z" fill="#31954e" stroke="#31954e" stroke-width="1.51"/><path d="M1926,573L2088,732L2107,595Z" fill="#86b86f" stroke="#86b86f" stroke-width="1.51"/><path d="M1985,452L1926,573L2107,595Z" fill="#93c180" stroke="#93c180" stroke-width="1.51"/><path d="M1946,1106L1939,1201L2092,1099Z" fill="#18904c" stroke="#18904c" stroke-width="1.51"/><path d="M1940,219L1931,380L2079,379Z" fill="#99ac60" stroke="#99ac60" stroke-width="1.51"/><path d="M1926,573L1940,759L2088,732Z" fill="#82bc69" stroke="#82bc69" stroke-width="1.51"/><path d="M1987,848L2085,944L2106,871Z" fill="#58a454" stroke="#58a454" stroke-width="1.51"/><path d="M1679,1203L1488,1198L1806,1247Z" fill="#439e53" stroke="#439e53" stroke-width="1.51"/><path d="M1940,759L1987,848L2088,732Z" fill="#71b25e" stroke="#71b25e" stroke-width="1.51"/><path d="M2079,379L1985,452L2092,466Z" fill="#93b26c" stroke="#93b26c" stroke-width="1.51"/><path d="M1987,848L1923,962L2085,944Z" fill="#54a856" stroke="#54a856" stroke-width="1.51"/><path d="M1931,380L1985,452L2079,379Z" fill="#96b56a" stroke="#96b56a" stroke-width="1.51"/><path d="M1931,-169L1961,-23L2068,-122Z" fill="#8c6936" stroke="#8c6936" stroke-width="1.51"/><path d="M1048,-148L1352,-137L1469,-166Z" fill="#ca8d50" stroke="#ca8d50" stroke-width="1.51"/><path d="M1926,573L1859,631L1940,759Z" fill="#8bc572" stroke="#8bc572" stroke-width="1.51"/><path d="M1857,233L1931,380L1940,219Z" fill="#a0ac5d" stroke="#a0ac5d" stroke-width="1.51"/><path d="M1857,464L1926,573L1985,452Z" fill="#99c67e" stroke="#99c67e" stroke-width="1.51"/><path d="M1940,759L1815,862L1987,848Z" fill="#6eb95f" stroke="#6eb95f" stroke-width="1.51"/><path d="M1815,862L1923,962L1987,848Z" fill="#5fb45c" stroke="#5fb45c" stroke-width="1.51"/><path d="M1931,380L1857,464L1985,452Z" fill="#9ac073" stroke="#9ac073" stroke-width="1.51"/><path d="M1859,631L1806,713L1940,759Z" fill="#89c56d" stroke="#89c56d" stroke-width="1.51"/><path d="M1835,85L1857,233L1940,219Z" fill="#a59e53" stroke="#a59e53" stroke-width="1.51"/><path d="M1923,962L1837,971L1946,1106Z" fill="#42a858" stroke="#42a858" stroke-width="1.51"/><path d="M1837,971L1804,1072L1946,1106Z" fill="#3fa657" stroke="#3fa657" stroke-width="1.51"/><path d="M1835,85L1940,219L1953,90Z" fill="#a2934d" stroke="#a2934d" stroke-width="1.51"/><path d="M1931,-169L1797,-129L1961,-23Z" fill="#92713a" stroke="#92713a" stroke-width="1.51"/><path d="M1797,-129L1808,-9L1961,-23Z" fill="#9e7a3c" stroke="#9e7a3c" stroke-width="1.51"/><path d="M1835,85L1953,90L1961,-23Z" fill="#a08544" stroke="#a08544" stroke-width="1.51"/><path d="M1808,-9L1835,85L1961,-23Z" fill="#a28343" stroke="#a28343" stroke-width="1.51"/><path d="M1804,1072L1939,1201L1946,1106Z" fill="#239b51" stroke="#239b51" stroke-width="1.51"/><path d="M1815,862L1837,971L1923,962Z" fill="#5cb45d" stroke="#5cb45d" stroke-width="1.51"/><path d="M1857,233L1797,388L1931,380Z" fill="#a3b867" stroke="#a3b867" stroke-width="1.51"/><path d="M1804,1072L1806,1247L1939,1201Z" fill="#26974f" stroke="#26974f" stroke-width="1.51"/><path d="M1746,-184L1797,-129L1931,-169Z" fill="#91713d" stroke="#91713d" stroke-width="1.51"/><path d="M1806,713L1815,862L1940,759Z" fill="#7dc166" stroke="#7dc166" stroke-width="1.51"/><path d="M1797,388L1857,464L1931,380Z" fill="#a1c372" stroke="#a1c372" stroke-width="1.51"/><path d="M1857,464L1859,631L1926,573Z" fill="#9bcd84" stroke="#9bcd84" stroke-width="1.51"/><path d="M1620,1190L1488,1198L1679,1203Z" fill="#4ea555" stroke="#4ea555" stroke-width="1.51"/><path d="M1804,1072L1700,1105L1806,1247Z" fill="#37a355" stroke="#37a355" stroke-width="1.51"/><path d="M1806,713L1725,821L1815,862Z" fill="#82c566" stroke="#82c566" stroke-width="1.51"/><path d="M1716,256L1797,388L1857,233Z" fill="#acb864" stroke="#acb864" stroke-width="1.51"/><path d="M1835,85L1743,71L1857,233Z" fill="#ad9951" stroke="#ad9951" stroke-width="1.51"/><path d="M1743,71L1716,256L1857,233Z" fill="#b1a758" stroke="#b1a758" stroke-width="1.51"/><path d="M1683,442L1688,636L1857,464Z" fill="#add689" stroke="#add689" stroke-width="1.51"/><path d="M1857,464L1688,636L1859,631Z" fill="#a1d284" stroke="#a1d284" stroke-width="1.51"/><path d="M1688,636L1806,713L1859,631Z" fill="#99cf77" stroke="#99cf77" stroke-width="1.51"/><path d="M1797,388L1683,442L1857,464Z" fill="#aacb79" stroke="#aacb79" stroke-width="1.51"/><path d="M1348,1189L1210,1224L1488,1198Z" fill="#6fb15d" stroke="#6fb15d" stroke-width="1.51"/><path d="M1716,256L1685,336L1797,388Z" fill="#b2c16b" stroke="#b2c16b" stroke-width="1.51"/><path d="M1700,1105L1679,1203L1806,1247Z" fill="#3a9e53" stroke="#3a9e53" stroke-width="1.51"/><path d="M1808,-9L1743,71L1835,85Z" fill="#ac8d49" stroke="#ac8d49" stroke-width="1.51"/><path d="M1815,862L1696,997L1837,971Z" fill="#63b95f" stroke="#63b95f" stroke-width="1.51"/><path d="M1696,997L1804,1072L1837,971Z" fill="#53b15d" stroke="#53b15d" stroke-width="1.51"/><path d="M1469,-166L1623,-132L1746,-184Z" fill="#a77e44" stroke="#a77e44" stroke-width="1.51"/><path d="M1688,636L1708,724L1806,713Z" fill="#9ad174" stroke="#9ad174" stroke-width="1.51"/><path d="M1708,724L1725,821L1806,713Z" fill="#8ecc6d" stroke="#8ecc6d" stroke-width="1.51"/><path d="M1797,-129L1671,-4L1808,-9Z" fill="#a98141" stroke="#a98141" stroke-width="1.51"/><path d="M1725,821L1696,997L1815,862Z" fill="#73c062" stroke="#73c062" stroke-width="1.51"/><path d="M1671,-4L1743,71L1808,-9Z" fill="#b08d48" stroke="#b08d48" stroke-width="1.51"/><path d="M1696,997L1700,1105L1804,1072Z" fill="#50af5c" stroke="#50af5c" stroke-width="1.51"/><path d="M1623,-132L1671,-4L1797,-129Z" fill="#aa8142" stroke="#aa8142" stroke-width="1.51"/><path d="M1685,336L1683,442L1797,388Z" fill="#b1cc75" stroke="#b1cc75" stroke-width="1.51"/><path d="M1746,-184L1623,-132L1797,-129Z" fill="#9d7941" stroke="#9d7941" stroke-width="1.51"/><path d="M1683,442L1581,580L1688,636Z" fill="#b6df8f" stroke="#b6df8f" stroke-width="1.51"/><path d="M1604,123L1597,220L1716,256Z" fill="#bfb35e" stroke="#bfb35e" stroke-width="1.51"/><path d="M1610,954L1696,997L1725,821Z" fill="#74c365" stroke="#74c365" stroke-width="1.51"/><path d="M1604,123L1716,256L1743,71Z" fill="#baa758" stroke="#baa758" stroke-width="1.51"/><path d="M1566,891L1610,954L1725,821Z" fill="#82c966" stroke="#82c966" stroke-width="1.51"/><path d="M1671,-4L1604,123L1743,71Z" fill="#ba984f" stroke="#ba984f" stroke-width="1.51"/><path d="M1696,997L1600,1069L1700,1105Z" fill="#59b55e" stroke="#59b55e" stroke-width="1.51"/><path d="M1708,724L1568,704L1725,821Z" fill="#98d270" stroke="#98d270" stroke-width="1.51"/><path d="M1568,704L1566,891L1725,821Z" fill="#94d16b" stroke="#94d16b" stroke-width="1.51"/><path d="M1550,488L1581,580L1683,442Z" fill="#bedf8b" stroke="#bedf8b" stroke-width="1.51"/><path d="M1604,376L1683,442L1685,336Z" fill="#b8d076" stroke="#b8d076" stroke-width="1.51"/><path d="M1620,1190L1679,1203L1700,1105Z" fill="#45a657" stroke="#45a657" stroke-width="1.51"/><path d="M1597,220L1685,336L1716,256Z" fill="#bbbd66" stroke="#bbbd66" stroke-width="1.51"/><path d="M1688,636L1568,704L1708,724Z" fill="#a4d778" stroke="#a4d778" stroke-width="1.51"/><path d="M1600,1069L1620,1190L1700,1105Z" fill="#4faf5b" stroke="#4faf5b" stroke-width="1.51"/><path d="M982,1238L735,1250L1054,1249Z" fill="#8fb778" stroke="#8fb778" stroke-width="1.51"/><path d="M1623,-132L1578,-10L1671,-4Z" fill="#b78a45" stroke="#b78a45" stroke-width="1.51"/><path d="M1610,954L1600,1069L1696,997Z" fill="#68bd62" stroke="#68bd62" stroke-width="1.51"/><path d="M1578,-10L1604,123L1671,-4Z" fill="#be974e" stroke="#be974e" stroke-width="1.51"/><path d="M1597,220L1604,376L1685,336Z" fill="#bec66c" stroke="#bec66c" stroke-width="1.51"/><path d="M1581,580L1568,704L1688,636Z" fill="#b0dc80" stroke="#b0dc80" stroke-width="1.51"/><path d="M1604,376L1550,488L1683,442Z" fill="#bed780" stroke="#bed780" stroke-width="1.51"/><path d="M1048,-148L1175,-118L1352,-137Z" fill="#d69256" stroke="#d69256" stroke-width="1.51"/><path d="M1474,862L1566,891L1568,704Z" fill="#9dd56b" stroke="#9dd56b" stroke-width="1.51"/><path d="M1578,-10L1466,94L1604,123Z" fill="#c8a052" stroke="#c8a052" stroke-width="1.51"/><path d="M1597,220L1497,316L1604,376Z" fill="#c6c86c" stroke="#c6c86c" stroke-width="1.51"/><path d="M1435,1005L1600,1069L1610,954Z" fill="#74c264" stroke="#74c264" stroke-width="1.51"/><path d="M1600,1069L1488,1198L1620,1190Z" fill="#56ae5a" stroke="#56ae5a" stroke-width="1.51"/><path d="M1488,-27L1578,-10L1623,-132Z" fill="#bd8c45" stroke="#bd8c45" stroke-width="1.51"/><path d="M1469,-166L1488,-27L1623,-132Z" fill="#b98845" stroke="#b98845" stroke-width="1.51"/><path d="M1429,1091L1488,1198L1600,1069Z" fill="#65b75d" stroke="#65b75d" stroke-width="1.51"/><path d="M1466,94L1597,220L1604,123Z" fill="#c9ad59" stroke="#c9ad59" stroke-width="1.51"/><path d="M1566,891L1435,1005L1610,954Z" fill="#82c966" stroke="#82c966" stroke-width="1.51"/><path d="M1440,729L1474,862L1568,704Z" fill="#acdb71" stroke="#acdb71" stroke-width="1.51"/><path d="M1466,94L1440,237L1597,220Z" fill="#ceb75e" stroke="#ceb75e" stroke-width="1.51"/><path d="M1497,316L1550,488L1604,376Z" fill="#c5d779" stroke="#c5d779" stroke-width="1.51"/><path d="M1435,1005L1429,1091L1600,1069Z" fill="#74c062" stroke="#74c062" stroke-width="1.51"/><path d="M1488,-27L1466,94L1578,-10Z" fill="#c99a4d" stroke="#c99a4d" stroke-width="1.51"/><path d="M1423,610L1568,704L1581,580Z" fill="#bce283" stroke="#bce283" stroke-width="1.51"/><path d="M1440,237L1497,316L1597,220Z" fill="#ccc467" stroke="#ccc467" stroke-width="1.51"/><path d="M1497,316L1428,462L1550,488Z" fill="#ccdd7f" stroke="#ccdd7f" stroke-width="1.51"/><path d="M1474,862L1435,1005L1566,891Z" fill="#8ece67" stroke="#8ece67" stroke-width="1.51"/><path d="M1550,488L1423,610L1581,580Z" fill="#c6e690" stroke="#c6e690" stroke-width="1.51"/><path d="M1423,610L1440,729L1568,704Z" fill="#bbe27b" stroke="#bbe27b" stroke-width="1.51"/><path d="M1428,462L1423,610L1550,488Z" fill="#cfe890" stroke="#cfe890" stroke-width="1.51"/><path d="M1353,122L1440,237L1466,94Z" fill="#d7b55d" stroke="#d7b55d" stroke-width="1.51"/><path d="M1301,-17L1466,94L1488,-27Z" fill="#d29e4f" stroke="#d29e4f" stroke-width="1.51"/><path d="M1469,-166L1352,-137L1488,-27Z" fill="#c28c46" stroke="#c28c46" stroke-width="1.51"/><path d="M1440,237L1369,354L1497,316Z" fill="#d5cf6e" stroke="#d5cf6e" stroke-width="1.51"/><path d="M1369,354L1428,462L1497,316Z" fill="#d4db79" stroke="#d4db79" stroke-width="1.51"/><path d="M1301,-17L1353,122L1466,94Z" fill="#daa757" stroke="#daa757" stroke-width="1.51"/><path d="M1440,729L1332,851L1474,862Z" fill="#addc6e" stroke="#addc6e" stroke-width="1.51"/><path d="M1332,851L1435,1005L1474,862Z" fill="#9bd46a" stroke="#9bd46a" stroke-width="1.51"/><path d="M1352,-137L1301,-17L1488,-27Z" fill="#d0934a" stroke="#d0934a" stroke-width="1.51"/><path d="M1429,1091L1348,1189L1488,1198Z" fill="#6bb65c" stroke="#6bb65c" stroke-width="1.51"/><path d="M1329,761L1332,851L1440,729Z" fill="#b8e075" stroke="#b8e075" stroke-width="1.51"/><path d="M1332,851L1323,1003L1435,1005Z" fill="#97d26c" stroke="#97d26c" stroke-width="1.51"/><path d="M1369,354L1332,446L1428,462Z" fill="#dae284" stroke="#dae284" stroke-width="1.51"/><path d="M1325,606L1423,610L1428,462Z" fill="#d5ed94" stroke="#d5ed94" stroke-width="1.51"/><path d="M1332,446L1325,606L1428,462Z" fill="#dbec94" stroke="#dbec94" stroke-width="1.51"/><path d="M1360,1077L1348,1189L1429,1091Z" fill="#75bd62" stroke="#75bd62" stroke-width="1.51"/><path d="M1360,1077L1429,1091L1435,1005Z" fill="#7dc464" stroke="#7dc464" stroke-width="1.51"/><path d="M1303,214L1369,354L1440,237Z" fill="#dccd6e" stroke="#dccd6e" stroke-width="1.51"/><path d="M1353,122L1303,214L1440,237Z" fill="#ddbf65" stroke="#ddbf65" stroke-width="1.51"/><path d="M1423,610L1325,606L1440,729Z" fill="#c9e885" stroke="#c9e885" stroke-width="1.51"/><path d="M1325,606L1329,761L1440,729Z" fill="#c6e77e" stroke="#c6e77e" stroke-width="1.51"/><path d="M1323,1003L1360,1077L1435,1005Z" fill="#87c968" stroke="#87c968" stroke-width="1.51"/><path d="M1325,606L1217,721L1329,761Z" fill="#ceea84" stroke="#ceea84" stroke-width="1.51"/><path d="M1215,957L1323,1003L1332,851Z" fill="#a2d772" stroke="#a2d772" stroke-width="1.51"/><path d="M1218,592L1325,606L1332,446Z" fill="#e1f29d" stroke="#e1f29d" stroke-width="1.51"/><path d="M1301,-17L1226,77L1353,122Z" fill="#e2a95c" stroke="#e2a95c" stroke-width="1.51"/><path d="M1236,1133L1348,1189L1360,1077Z" fill="#7abf66" stroke="#7abf66" stroke-width="1.51"/><path d="M1303,214L1232,256L1369,354Z" fill="#e3d174" stroke="#e3d174" stroke-width="1.51"/><path d="M1190,349L1332,446L1369,354Z" fill="#e2e283" stroke="#e2e283" stroke-width="1.51"/><path d="M1232,256L1190,349L1369,354Z" fill="#e6da7c" stroke="#e6da7c" stroke-width="1.51"/><path d="M1323,1003L1236,1133L1360,1077Z" fill="#87c76a" stroke="#87c76a" stroke-width="1.51"/><path d="M1175,-118L1301,-17L1352,-137Z" fill="#d59451" stroke="#d59451" stroke-width="1.51"/><path d="M1226,77L1303,214L1353,122Z" fill="#e4b764" stroke="#e4b764" stroke-width="1.51"/><path d="M1173,440L1218,592L1332,446Z" fill="#e8f09a" stroke="#e8f09a" stroke-width="1.51"/><path d="M1236,1133L1210,1224L1348,1189Z" fill="#7bb965" stroke="#7bb965" stroke-width="1.51"/><path d="M1215,957L1236,1133L1323,1003Z" fill="#93ce70" stroke="#93ce70" stroke-width="1.51"/><path d="M1218,592L1217,721L1325,606Z" fill="#daef90" stroke="#daef90" stroke-width="1.51"/><path d="M1329,761L1197,815L1332,851Z" fill="#bce378" stroke="#bce378" stroke-width="1.51"/><path d="M1197,815L1215,957L1332,851Z" fill="#b3df76" stroke="#b3df76" stroke-width="1.51"/><path d="M1190,349L1173,440L1332,446Z" fill="#e9e88c" stroke="#e9e88c" stroke-width="1.51"/><path d="M1217,721L1197,815L1329,761Z" fill="#c7e77f" stroke="#c7e77f" stroke-width="1.51"/><path d="M1195,6L1226,77L1301,-17Z" fill="#e4a55c" stroke="#e4a55c" stroke-width="1.51"/><path d="M1175,-118L1195,6L1301,-17Z" fill="#e09c56" stroke="#e09c56" stroke-width="1.51"/><path d="M1226,77L1232,256L1303,214Z" fill="#e8c26b" stroke="#e8c26b" stroke-width="1.51"/><path d="M865,-166L995,-141L1048,-148Z" fill="#e4956d" stroke="#e4956d" stroke-width="1.51"/><path d="M1197,815L1117,866L1215,957Z" fill="#b9e17c" stroke="#b9e17c" stroke-width="1.51"/><path d="M1102,941L1059,1141L1215,957Z" fill="#a3d67d" stroke="#a3d67d" stroke-width="1.51"/><path d="M1107,619L1217,721L1218,592Z" fill="#e1f295" stroke="#e1f295" stroke-width="1.51"/><path d="M1173,440L1107,619L1218,592Z" fill="#edf8a7" stroke="#edf8a7" stroke-width="1.51"/><path d="M1100,67L1088,231L1226,77Z" fill="#f3ba70" stroke="#f3ba70" stroke-width="1.51"/><path d="M1226,77L1088,231L1232,256Z" fill="#f0c571" stroke="#f0c571" stroke-width="1.51"/><path d="M1215,957L1059,1141L1236,1133Z" fill="#93cc74" stroke="#93cc74" stroke-width="1.51"/><path d="M1059,1141L1210,1224L1236,1133Z" fill="#86c06d" stroke="#86c06d" stroke-width="1.51"/><path d="M1088,231L1190,349L1232,256Z" fill="#f0d77e" stroke="#f0d77e" stroke-width="1.51"/><path d="M1117,866L1102,941L1215,957Z" fill="#b4df7e" stroke="#b4df7e" stroke-width="1.51"/><path d="M1107,619L1083,706L1217,721Z" fill="#dff294" stroke="#dff294" stroke-width="1.51"/><path d="M1195,6L1100,67L1226,77Z" fill="#ecac64" stroke="#ecac64" stroke-width="1.51"/><path d="M1083,706L1197,815L1217,721Z" fill="#d2ec88" stroke="#d2ec88" stroke-width="1.51"/><path d="M1175,-118L1079,2L1195,6Z" fill="#e89f5e" stroke="#e89f5e" stroke-width="1.51"/><path d="M1058,441L1107,619L1173,440Z" fill="#f3f6a8" stroke="#f3f6a8" stroke-width="1.51"/><path d="M1088,231L1057,313L1190,349Z" fill="#f4db87" stroke="#f4db87" stroke-width="1.51"/><path d="M1059,1141L1054,1249L1210,1224Z" fill="#87bb70" stroke="#87bb70" stroke-width="1.51"/><path d="M1083,706L1117,866L1197,815Z" fill="#cdea86" stroke="#cdea86" stroke-width="1.51"/><path d="M1058,441L1173,440L1190,349Z" fill="#f0ec95" stroke="#f0ec95" stroke-width="1.51"/><path d="M1079,2L1100,67L1195,6Z" fill="#efa967" stroke="#efa967" stroke-width="1.51"/><path d="M1057,313L1058,441L1190,349Z" fill="#f4e792" stroke="#f4e792" stroke-width="1.51"/><path d="M974,1065L1059,1141L1102,941Z" fill="#a3d483" stroke="#a3d483" stroke-width="1.51"/><path d="M1048,-148L1079,2L1175,-118Z" fill="#e59a60" stroke="#e59a60" stroke-width="1.51"/><path d="M971,702L921,836L1083,706Z" fill="#e0f29b" stroke="#e0f29b" stroke-width="1.51"/><path d="M985,218L1088,231L1100,67Z" fill="#f9c67e" stroke="#f9c67e" stroke-width="1.51"/><path d="M943,68L985,218L1100,67Z" fill="#fcbd7c" stroke="#fcbd7c" stroke-width="1.51"/><path d="M1058,441L931,597L1107,619Z" fill="#f8fcb5" stroke="#f8fcb5" stroke-width="1.51"/><path d="M1083,706L921,836L1117,866Z" fill="#d3ed90" stroke="#d3ed90" stroke-width="1.51"/><path d="M950,940L1102,941L1117,866Z" fill="#bce288" stroke="#bce288" stroke-width="1.51"/><path d="M921,836L950,940L1117,866Z" fill="#c8e78f" stroke="#c8e78f" stroke-width="1.51"/><path d="M1048,-148L995,-141L1079,2Z" fill="#e89a66" stroke="#e89a66" stroke-width="1.51"/><path d="M950,940L974,1065L1102,941Z" fill="#b2dd8b" stroke="#b2dd8b" stroke-width="1.51"/><path d="M971,702L1083,706L1107,619Z" fill="#e7f59e" stroke="#e7f59e" stroke-width="1.51"/><path d="M931,597L971,702L1107,619Z" fill="#eff8aa" stroke="#eff8aa" stroke-width="1.51"/><path d="M946,444L931,597L1058,441Z" fill="#fefab5" stroke="#fefab5" stroke-width="1.51"/><path d="M995,-141L932,-55L1079,2Z" fill="#f09e6b" stroke="#f09e6b" stroke-width="1.51"/><path d="M1079,2L943,68L1100,67Z" fill="#f7af71" stroke="#f7af71" stroke-width="1.51"/><path d="M985,218L1057,313L1088,231Z" fill="#fad689" stroke="#fad689" stroke-width="1.51"/><path d="M1057,313L932,326L1058,441Z" fill="#fbe99a" stroke="#fbe99a" stroke-width="1.51"/><path d="M932,326L946,444L1058,441Z" fill="#fef0a5" stroke="#fef0a5" stroke-width="1.51"/><path d="M982,1238L1054,1249L1059,1141Z" fill="#8dbd77" stroke="#8dbd77" stroke-width="1.51"/><path d="M932,-55L943,68L1079,2Z" fill="#f8aa73" stroke="#f8aa73" stroke-width="1.51"/><path d="M797,1215L735,1250L982,1238Z" fill="#91b470" stroke="#91b470" stroke-width="1.51"/><path d="M985,218L932,326L1057,313Z" fill="#fedd93" stroke="#fedd93" stroke-width="1.51"/><path d="M974,1065L982,1238L1059,1141Z" fill="#95c980" stroke="#95c980" stroke-width="1.51"/><path d="M974,1065L801,1141L982,1238Z" fill="#99c881" stroke="#99c881" stroke-width="1.51"/><path d="M801,1141L797,1215L982,1238Z" fill="#95bc76" stroke="#95bc76" stroke-width="1.51"/><path d="M943,68L802,205L985,218Z" fill="#ffc481" stroke="#ffc481" stroke-width="1.51"/><path d="M865,-166L932,-55L995,-141Z" fill="#ea986b" stroke="#ea986b" stroke-width="1.51"/><path d="M835,705L921,836L971,702Z" fill="#e3f099" stroke="#e3f099" stroke-width="1.51"/><path d="M802,205L932,326L985,218Z" fill="#ffd58b" stroke="#ffd58b" stroke-width="1.51"/><path d="M931,597L857,623L971,702Z" fill="#f3f7a9" stroke="#f3f7a9" stroke-width="1.51"/><path d="M950,940L799,946L974,1065Z" fill="#b6dc8a" stroke="#b6dc8a" stroke-width="1.51"/><path d="M932,-55L839,-6L943,68Z" fill="#f8a670" stroke="#f8a670" stroke-width="1.51"/><path d="M799,483L931,597L946,444Z" fill="#fff7b2" stroke="#fff7b2" stroke-width="1.51"/><path d="M857,623L835,705L971,702Z" fill="#eef3a0" stroke="#eef3a0" stroke-width="1.51"/><path d="M799,946L801,1141L974,1065Z" fill="#aad181" stroke="#aad181" stroke-width="1.51"/><path d="M812,64L802,205L943,68Z" fill="#ffb676" stroke="#ffb676" stroke-width="1.51"/><path d="M799,483L857,623L931,597Z" fill="#fcf7af" stroke="#fcf7af" stroke-width="1.51"/><path d="M802,205L797,323L932,326Z" fill="#ffd789" stroke="#ffd789" stroke-width="1.51"/><path d="M932,326L797,323L946,444Z" fill="#ffe79a" stroke="#ffe79a" stroke-width="1.51"/><path d="M797,323L799,483L946,444Z" fill="#ffea9d" stroke="#ffea9d" stroke-width="1.51"/><path d="M921,836L853,875L950,940Z" fill="#cae58e" stroke="#cae58e" stroke-width="1.51"/><path d="M853,875L799,946L950,940Z" fill="#c3df88" stroke="#c3df88" stroke-width="1.51"/><path d="M839,-6L812,64L943,68Z" fill="#fbaa70" stroke="#fbaa70" stroke-width="1.51"/><path d="M835,705L853,875L921,836Z" fill="#d9e98f" stroke="#d9e98f" stroke-width="1.51"/><path d="M865,-166L839,-6L932,-55Z" fill="#f09966" stroke="#f09966" stroke-width="1.51"/><path d="M563,1194L342,1252L735,1250Z" fill="#969d55" stroke="#969d55" stroke-width="1.51"/><path d="M799,946L734,1096L801,1141Z" fill="#aaca78" stroke="#aaca78" stroke-width="1.51"/><path d="M835,705L690,849L853,875Z" fill="#d8e386" stroke="#d8e386" stroke-width="1.51"/><path d="M799,483L736,607L857,623Z" fill="#fbf3a7" stroke="#fbf3a7" stroke-width="1.51"/><path d="M702,-25L839,-6L865,-166Z" fill="#f1955e" stroke="#f1955e" stroke-width="1.51"/><path d="M703,-186L702,-25L865,-166Z" fill="#e58b59" stroke="#e58b59" stroke-width="1.51"/><path d="M797,323L744,479L799,483Z" fill="#ffe898" stroke="#ffe898" stroke-width="1.51"/><path d="M670,734L690,849L835,705Z" fill="#e0e384" stroke="#e0e384" stroke-width="1.51"/><path d="M736,607L835,705L857,623Z" fill="#f2f09d" stroke="#f2f09d" stroke-width="1.51"/><path d="M690,849L799,946L853,875Z" fill="#cadd80" stroke="#cadd80" stroke-width="1.51"/><path d="M682,381L744,479L797,323Z" fill="#fee18e" stroke="#fee18e" stroke-width="1.51"/><path d="M727,66L705,188L802,205Z" fill="#feb76f" stroke="#feb76f" stroke-width="1.51"/><path d="M727,66L802,205L812,64Z" fill="#feb16e" stroke="#feb16e" stroke-width="1.51"/><path d="M727,66L812,64L839,-6Z" fill="#faa568" stroke="#faa568" stroke-width="1.51"/><path d="M702,-25L727,66L839,-6Z" fill="#f69e61" stroke="#f69e61" stroke-width="1.51"/><path d="M744,479L736,607L799,483Z" fill="#fff0a6" stroke="#fff0a6" stroke-width="1.51"/><path d="M736,607L670,734L835,705Z" fill="#edea8f" stroke="#edea8f" stroke-width="1.51"/><path d="M686,959L734,1096L799,946Z" fill="#b4cf78" stroke="#b4cf78" stroke-width="1.51"/><path d="M705,188L797,323L802,205Z" fill="#ffca7b" stroke="#ffca7b" stroke-width="1.51"/><path d="M705,188L682,381L797,323Z" fill="#fed17e" stroke="#fed17e" stroke-width="1.51"/><path d="M690,849L686,959L799,946Z" fill="#c4d679" stroke="#c4d679" stroke-width="1.51"/><path d="M735,1250L797,1215L801,1141Z" fill="#95b66d" stroke="#95b66d" stroke-width="1.51"/><path d="M734,1096L735,1250L801,1141Z" fill="#99bb6e" stroke="#99bb6e" stroke-width="1.51"/><path d="M600,-179L702,-25L703,-186Z" fill="#e38351" stroke="#e38351" stroke-width="1.51"/><path d="M604,202L682,381L705,188Z" fill="#fec473" stroke="#fec473" stroke-width="1.51"/><path d="M624,74L705,188L727,66Z" fill="#fda965" stroke="#fda965" stroke-width="1.51"/><path d="M686,959L592,1007L734,1096Z" fill="#b2c770" stroke="#b2c770" stroke-width="1.51"/><path d="M734,1096L589,1117L735,1250Z" fill="#9bb768" stroke="#9bb768" stroke-width="1.51"/><path d="M589,1117L563,1194L735,1250Z" fill="#99ac60" stroke="#99ac60" stroke-width="1.51"/><path d="M609,567L670,734L736,607Z" fill="#f3e590" stroke="#f3e590" stroke-width="1.51"/><path d="M623,499L609,567L736,607Z" fill="#fee79c" stroke="#fee79c" stroke-width="1.51"/><path d="M623,499L736,607L744,479Z" fill="#ffeca1" stroke="#ffeca1" stroke-width="1.51"/><path d="M682,381L623,499L744,479Z" fill="#ffe292" stroke="#ffe292" stroke-width="1.51"/><path d="M702,-25L624,74L727,66Z" fill="#f79c5d" stroke="#f79c5d" stroke-width="1.51"/><path d="M592,1007L589,1117L734,1096Z" fill="#a9bd6a" stroke="#a9bd6a" stroke-width="1.51"/><path d="M604,202L548,338L682,381Z" fill="#fec775" stroke="#fec775" stroke-width="1.51"/><path d="M670,734L623,764L690,849Z" fill="#dedb7b" stroke="#dedb7b" stroke-width="1.51"/><path d="M602,848L686,959L690,849Z" fill="#ccd374" stroke="#ccd374" stroke-width="1.51"/><path d="M600,-179L546,-37L702,-25Z" fill="#eb834d" stroke="#eb834d" stroke-width="1.51"/><path d="M624,74L604,202L705,188Z" fill="#fdae66" stroke="#fdae66" stroke-width="1.51"/><path d="M546,-37L624,74L702,-25Z" fill="#f49055" stroke="#f49055" stroke-width="1.51"/><path d="M623,764L602,848L690,849Z" fill="#d8d675" stroke="#d8d675" stroke-width="1.51"/><path d="M429,1194L342,1252L563,1194Z" fill="#999650" stroke="#999650" stroke-width="1.51"/><path d="M609,567L623,764L670,734Z" fill="#edde83" stroke="#edde83" stroke-width="1.51"/><path d="M602,848L592,1007L686,959Z" fill="#c2cb6f" stroke="#c2cb6f" stroke-width="1.51"/><path d="M548,338L623,499L682,381Z" fill="#fed784" stroke="#fed784" stroke-width="1.51"/><path d="M116,-177L358,-146L445,-173Z" fill="#d65038" stroke="#d65038" stroke-width="1.51"/><path d="M441,854L436,1000L592,1007Z" fill="#c1bc63" stroke="#c1bc63" stroke-width="1.51"/><path d="M441,854L592,1007L602,848Z" fill="#cac669" stroke="#cac669" stroke-width="1.51"/><path d="M486,242L548,338L604,202Z" fill="#feb869" stroke="#feb869" stroke-width="1.51"/><path d="M458,745L602,848L623,764Z" fill="#ded172" stroke="#ded172" stroke-width="1.51"/><path d="M609,567L467,587L623,764Z" fill="#f4da86" stroke="#f4da86" stroke-width="1.51"/><path d="M467,587L458,745L623,764Z" fill="#edd277" stroke="#edd277" stroke-width="1.51"/><path d="M485,454L609,567L623,499Z" fill="#ffdc91" stroke="#ffdc91" stroke-width="1.51"/><path d="M548,338L485,454L623,499Z" fill="#ffd283" stroke="#ffd283" stroke-width="1.51"/><path d="M453,100L604,202L624,74Z" fill="#fb9e5c" stroke="#fb9e5c" stroke-width="1.51"/><path d="M546,-37L453,100L624,74Z" fill="#f78e52" stroke="#f78e52" stroke-width="1.51"/><path d="M445,-173L546,-37L600,-179Z" fill="#e17446" stroke="#e17446" stroke-width="1.51"/><path d="M458,745L441,854L602,848Z" fill="#d9c969" stroke="#d9c969" stroke-width="1.51"/><path d="M453,100L486,242L604,202Z" fill="#fca55d" stroke="#fca55d" stroke-width="1.51"/><path d="M485,454L467,587L609,567Z" fill="#ffda92" stroke="#ffda92" stroke-width="1.51"/><path d="M492,-36L453,100L546,-37Z" fill="#f3834b" stroke="#f3834b" stroke-width="1.51"/><path d="M445,-173L492,-36L546,-37Z" fill="#e97544" stroke="#e97544" stroke-width="1.51"/><path d="M424,1076L589,1117L592,1007Z" fill="#adb461" stroke="#adb461" stroke-width="1.51"/><path d="M436,1000L424,1076L592,1007Z" fill="#b4b45f" stroke="#b4b45f" stroke-width="1.51"/><path d="M424,1076L563,1194L589,1117Z" fill="#a2ac5c" stroke="#a2ac5c" stroke-width="1.51"/><path d="M486,242L460,328L548,338Z" fill="#feba6a" stroke="#feba6a" stroke-width="1.51"/><path d="M460,328L485,454L548,338Z" fill="#fec674" stroke="#fec674" stroke-width="1.51"/><path d="M424,1076L429,1194L563,1194Z" fill="#9fa356" stroke="#9fa356" stroke-width="1.51"/><path d="M116,-177L238,-128L358,-146Z" fill="#d64734" stroke="#d64734" stroke-width="1.51"/><path d="M318,601L362,762L458,745Z" fill="#ecc16d" stroke="#ecc16d" stroke-width="1.51"/><path d="M318,601L458,745L467,587Z" fill="#f4c979" stroke="#f4c979" stroke-width="1.51"/><path d="M460,328L363,348L485,454Z" fill="#febf71" stroke="#febf71" stroke-width="1.51"/><path d="M314,495L467,587L485,454Z" fill="#ffcc86" stroke="#ffcc86" stroke-width="1.51"/><path d="M453,100L351,245L486,242Z" fill="#fc9e59" stroke="#fc9e59" stroke-width="1.51"/><path d="M445,-173L358,-146L492,-36Z" fill="#e1683f" stroke="#e1683f" stroke-width="1.51"/><path d="M358,-146L320,-39L492,-36Z" fill="#e7663d" stroke="#e7663d" stroke-width="1.51"/><path d="M366,80L453,100L492,-36Z" fill="#f5814b" stroke="#f5814b" stroke-width="1.51"/><path d="M320,-39L366,80L492,-36Z" fill="#ef7343" stroke="#ef7343" stroke-width="1.51"/><path d="M363,348L314,495L485,454Z" fill="#ffbf76" stroke="#ffbf76" stroke-width="1.51"/><path d="M351,245L460,328L486,242Z" fill="#fdad62" stroke="#fdad62" stroke-width="1.51"/><path d="M311,883L436,1000L441,854Z" fill="#c9b55e" stroke="#c9b55e" stroke-width="1.51"/><path d="M366,80L351,245L453,100Z" fill="#f98d51" stroke="#f98d51" stroke-width="1.51"/><path d="M362,762L441,854L458,745Z" fill="#dec167" stroke="#dec167" stroke-width="1.51"/><path d="M351,245L363,348L460,328Z" fill="#fdad64" stroke="#fdad64" stroke-width="1.51"/><path d="M314,495L318,601L467,587Z" fill="#fec784" stroke="#fec784" stroke-width="1.51"/><path d="M424,1076L298,1067L429,1194Z" fill="#a79e53" stroke="#a79e53" stroke-width="1.51"/><path d="M311,883L297,1001L436,1000Z" fill="#c1ab59" stroke="#c1ab59" stroke-width="1.51"/><path d="M297,1001L424,1076L436,1000Z" fill="#b5a859" stroke="#b5a859" stroke-width="1.51"/><path d="M362,762L311,883L441,854Z" fill="#d7b85f" stroke="#d7b85f" stroke-width="1.51"/><path d="M297,1001L298,1067L424,1076Z" fill="#b2a155" stroke="#b2a155" stroke-width="1.51"/><path d="M298,1067L342,1252L429,1194Z" fill="#9f934d" stroke="#9f934d" stroke-width="1.51"/><path d="M220,1079L246,1263L298,1067Z" fill="#a38d49" stroke="#a38d49" stroke-width="1.51"/><path d="M234,349L215,440L314,495Z" fill="#fdae6d" stroke="#fdae6d" stroke-width="1.51"/><path d="M298,1067L246,1263L342,1252Z" fill="#9c8848" stroke="#9c8848" stroke-width="1.51"/><path d="M238,-128L320,-39L358,-146Z" fill="#e05638" stroke="#e05638" stroke-width="1.51"/><path d="M318,601L232,758L362,762Z" fill="#ebb867" stroke="#ebb867" stroke-width="1.51"/><path d="M232,758L311,883L362,762Z" fill="#dcb25e" stroke="#dcb25e" stroke-width="1.51"/><path d="M351,245L234,349L363,348Z" fill="#fca560" stroke="#fca560" stroke-width="1.51"/><path d="M234,349L314,495L363,348Z" fill="#fdb16b" stroke="#fdb16b" stroke-width="1.51"/><path d="M320,-39L195,75L366,80Z" fill="#f06b41" stroke="#f06b41" stroke-width="1.51"/><path d="M178,197L351,245L366,80Z" fill="#f8884e" stroke="#f8884e" stroke-width="1.51"/><path d="M195,75L178,197L366,80Z" fill="#f57445" stroke="#f57445" stroke-width="1.51"/><path d="M237,946L297,1001L311,883Z" fill="#c4a455" stroke="#c4a455" stroke-width="1.51"/><path d="M191,622L232,758L318,601Z" fill="#f1b36a" stroke="#f1b36a" stroke-width="1.51"/><path d="M178,197L234,349L351,245Z" fill="#fa9456" stroke="#fa9456" stroke-width="1.51"/><path d="M232,758L184,827L311,883Z" fill="#d8a957" stroke="#d8a957" stroke-width="1.51"/><path d="M215,440L191,622L314,495Z" fill="#ffb57b" stroke="#ffb57b" stroke-width="1.51"/><path d="M314,495L191,622L318,601Z" fill="#fcba7b" stroke="#fcba7b" stroke-width="1.51"/><path d="M238,-128L178,-26L320,-39Z" fill="#e55135" stroke="#e55135" stroke-width="1.51"/><path d="M178,-26L195,75L320,-39Z" fill="#eb5b39" stroke="#eb5b39" stroke-width="1.51"/><path d="M184,827L237,946L311,883Z" fill="#cea555" stroke="#cea555" stroke-width="1.51"/><path d="M237,946L220,1079L297,1001Z" fill="#b89a51" stroke="#b89a51" stroke-width="1.51"/><path d="M297,1001L220,1079L298,1067Z" fill="#b19850" stroke="#b19850" stroke-width="1.51"/><path d="M122,483L191,622L215,440Z" fill="#fcaf76" stroke="#fcaf76" stroke-width="1.51"/><path d="M191,622L89,720L232,758Z" fill="#e8aa60" stroke="#e8aa60" stroke-width="1.51"/><path d="M178,197L72,351L234,349Z" fill="#f69054" stroke="#f69054" stroke-width="1.51"/><path d="M112,956L220,1079L237,946Z" fill="#b8964e" stroke="#b8964e" stroke-width="1.51"/><path d="M184,827L112,956L237,946Z" fill="#c79c4f" stroke="#c79c4f" stroke-width="1.51"/><path d="M49,1201L-33,1258L246,1263Z" fill="#906c37" stroke="#906c37" stroke-width="1.51"/><path d="M220,1079L119,1097L246,1263Z" fill="#a08545" stroke="#a08545" stroke-width="1.51"/><path d="M119,1097L49,1201L246,1263Z" fill="#99793e" stroke="#99793e" stroke-width="1.51"/><path d="M122,483L104,595L191,622Z" fill="#f7ac73" stroke="#f7ac73" stroke-width="1.51"/><path d="M112,956L119,1097L220,1079Z" fill="#ae8d48" stroke="#ae8d48" stroke-width="1.51"/><path d="M72,351L215,440L234,349Z" fill="#f8a060" stroke="#f8a060" stroke-width="1.51"/><path d="M116,-177L178,-26L238,-128Z" fill="#d94330" stroke="#d94330" stroke-width="1.51"/><path d="M89,720L184,827L232,758Z" fill="#dea558" stroke="#dea558" stroke-width="1.51"/><path d="M67,214L72,351L178,197Z" fill="#f2824b" stroke="#f2824b" stroke-width="1.51"/><path d="M118,82L178,197L195,75Z" fill="#f06a40" stroke="#f06a40" stroke-width="1.51"/><path d="M72,351L122,483L215,440Z" fill="#f8a165" stroke="#f8a165" stroke-width="1.51"/><path d="M116,-177L56,-54L178,-26Z" fill="#d93d2d" stroke="#d93d2d" stroke-width="1.51"/><path d="M82,834L112,956L184,827Z" fill="#cb9a4d" stroke="#cb9a4d" stroke-width="1.51"/><path d="M89,720L82,834L184,827Z" fill="#d79f52" stroke="#d79f52" stroke-width="1.51"/><path d="M104,595L89,720L191,622Z" fill="#eda865" stroke="#eda865" stroke-width="1.51"/><path d="M178,-26L118,82L195,75Z" fill="#eb5b39" stroke="#eb5b39" stroke-width="1.51"/><path d="M56,-54L118,82L178,-26Z" fill="#e44d32" stroke="#e44d32" stroke-width="1.51"/><path d="M118,82L67,214L178,197Z" fill="#f07043" stroke="#f07043" stroke-width="1.51"/><path d="M82,834L-24,958L112,956Z" fill="#c09047" stroke="#c09047" stroke-width="1.51"/><path d="M-24,958L-17,1080L112,956Z" fill="#b18644" stroke="#b18644" stroke-width="1.51"/><path d="M-16,-172L56,-54L116,-177Z" fill="#cd2e2a" stroke="#cd2e2a" stroke-width="1.51"/><path d="M-29,83L67,214L118,82Z" fill="#ea603b" stroke="#ea603b" stroke-width="1.51"/><path d="M56,-54L-29,83L118,82Z" fill="#e34c32" stroke="#e34c32" stroke-width="1.51"/><path d="M112,956L-17,1080L119,1097Z" fill="#ab8544" stroke="#ab8544" stroke-width="1.51"/><path d="M-17,1080L49,1201L119,1097Z" fill="#9c7a3e" stroke="#9c7a3e" stroke-width="1.51"/><path d="M72,351L-50,463L122,483Z" fill="#f49960" stroke="#f49960" stroke-width="1.51"/><path d="M-33,567L104,595L122,483Z" fill="#f6a571" stroke="#f6a571" stroke-width="1.51"/><path d="M-50,463L-33,567L122,483Z" fill="#f49d69" stroke="#f49d69" stroke-width="1.51"/><path d="M-33,567L89,720L104,595Z" fill="#eca163" stroke="#eca163" stroke-width="1.51"/><path d="M-23,838L-24,958L82,834Z" fill="#c48f45" stroke="#c48f45" stroke-width="1.51"/><path d="M67,214L-39,328L72,351Z" fill="#ef824c" stroke="#ef824c" stroke-width="1.51"/><path d="M-23,838L82,834L89,720Z" fill="#d3974d" stroke="#d3974d" stroke-width="1.51"/><path d="M-41,-35L-29,83L56,-54Z" fill="#db3d2c" stroke="#db3d2c" stroke-width="1.51"/><path d="M-70,761L-23,838L89,720Z" fill="#d4944d" stroke="#d4944d" stroke-width="1.51"/><path d="M-33,567L-70,761L89,720Z" fill="#e19957" stroke="#e19957" stroke-width="1.51"/><path d="M-39,328L-50,463L72,351Z" fill="#ee8e55" stroke="#ee8e55" stroke-width="1.51"/><path d="M-29,83L-79,210L67,214Z" fill="#e7633c" stroke="#e7633c" stroke-width="1.51"/><path d="M-79,210L-39,328L67,214Z" fill="#e97644" stroke="#e97644" stroke-width="1.51"/><path d="M-16,-172L-41,-35L56,-54Z" fill="#d12c27" stroke="#d12c27" stroke-width="1.51"/><path d="M-17,1080L-33,1258L49,1201Z" fill="#936e37" stroke="#936e37" stroke-width="1.51"/><path d="M-128,359L-50,463L-39,328Z" fill="#e78a55" stroke="#e78a55" stroke-width="1.51"/><path d="M-183,633L-70,761L-33,567Z" fill="#db945c" stroke="#db945c" stroke-width="1.51"/><path d="M-41,-35L-136,1L-29,83Z" fill="#d63d2e" stroke="#d63d2e" stroke-width="1.51"/><path d="M-140,943L-24,958L-23,838Z" fill="#b78745" stroke="#b78745" stroke-width="1.51"/><path d="M-181,1200L-33,1258L-17,1080Z" fill="#8b6937" stroke="#8b6937" stroke-width="1.51"/><path d="M-178,1086L-181,1200L-17,1080Z" fill="#8d6e3b" stroke="#8d6e3b" stroke-width="1.51"/><path d="M-24,958L-140,943L-17,1080Z" fill="#a98143" stroke="#a98143" stroke-width="1.51"/><path d="M-140,943L-178,1086L-17,1080Z" fill="#9d7840" stroke="#9d7840" stroke-width="1.51"/><path d="M-199,-165L-41,-35L-16,-172Z" fill="#c22127" stroke="#c22127" stroke-width="1.51"/><path d="M-199,-165L-136,1L-41,-35Z" fill="#c72427" stroke="#c72427" stroke-width="1.51"/><path d="M-50,463L-168,474L-33,567Z" fill="#e99668" stroke="#e99668" stroke-width="1.51"/><path d="M-192,97L-79,210L-29,83Z" fill="#dc5438" stroke="#dc5438" stroke-width="1.51"/><path d="M-70,761L-203,870L-23,838Z" fill="#c28b48" stroke="#c28b48" stroke-width="1.51"/><path d="M-203,870L-140,943L-23,838Z" fill="#b58545" stroke="#b58545" stroke-width="1.51"/><path d="M-155,223L-128,359L-79,210Z" fill="#df7146" stroke="#df7146" stroke-width="1.51"/><path d="M-183,633L-198,703L-70,761Z" fill="#cf8f55" stroke="#cf8f55" stroke-width="1.51"/><path d="M-79,210L-128,359L-39,328Z" fill="#e37a4a" stroke="#e37a4a" stroke-width="1.51"/><path d="M-136,1L-192,97L-29,83Z" fill="#d54332" stroke="#d54332" stroke-width="1.51"/><path d="M-168,474L-183,633L-33,567Z" fill="#e3966b" stroke="#e3966b" stroke-width="1.51"/><path d="M-192,97L-155,223L-79,210Z" fill="#d95d3d" stroke="#d95d3d" stroke-width="1.51"/><path d="M-128,359L-168,474L-50,463Z" fill="#e48c5d" stroke="#e48c5d" stroke-width="1.51"/><path d="M-198,703L-203,870L-70,761Z" fill="#c28a4d" stroke="#c28a4d" stroke-width="1.51"/><path d="M-155,223L-168,474L-128,359Z" fill="#dd7f51" stroke="#dd7f51" stroke-width="1.51"/><path d="M-203,870L-178,1086L-140,943Z" fill="#a27b43" stroke="#a27b43" stroke-width="1.51"/><path d="M-199,-165L-192,97L-136,1Z" fill="#c72c2a" stroke="#c72c2a" stroke-width="1.51"/><path d="M-192,97L-168,474L-155,223Z" fill="#d96e46" stroke="#d96e46" stroke-width="1.51"/><path d="M-198,703L-183,633L-168,474Z" fill="#d79063" stroke="#d79063" stroke-width="1.51"/><path d="M-192,97L-198,703L-168,474Z" fill="#dc875b" stroke="#dc875b" stroke-width="1.51"/><path d="M-203,870L-181,1200L-178,1086Z" fill="#92723e" stroke="#92723e" stroke-width="1.51"/><path d="M-199,-165L-198,703L-192,97Z" fill="#d5623f" stroke="#d5623f" stroke-width="1.51"/><path d="M-199,-165L-203,870L-198,703Z" fill="#db8a62" stroke="#db8a62" stroke-width="1.51"/></svg>